<svg width="130" height="49" viewBox="0 0 130 49" fill="none" xmlns="http://www.w3.org/2000/svg">
<rect x="0.736141" y="0.736141" width="128.588" height="47.1429" rx="7.30011" fill="white" stroke="#090909" stroke-width="0.527719"/>
<g filter="url(#filter0_ii_264_1342)">
<path d="M13.7784 12.8041C13.5021 13.0913 13.3389 13.5369 13.3389 14.114V34.7329C13.3389 35.3109 13.5021 35.7556 13.7784 36.0427L13.8486 36.1099L25.6089 24.5596V24.4234V24.2873L13.8486 12.7361L13.7784 12.8041Z" fill="url(#paint0_linear_264_1342)"/>
<path d="M29.5269 28.4108L25.6074 24.5594V24.4233V24.2872L29.5278 20.4368L29.6161 20.4862L34.2608 23.078C35.5869 23.8182 35.5869 25.0293 34.2608 25.7705L29.6161 28.3623L29.5269 28.4108Z" fill="url(#paint1_linear_264_1342)"/>
<g filter="url(#filter1_i_264_1342)">
<path d="M29.6176 28.3614L25.6079 24.4233L13.7783 36.0426C14.215 36.4976 14.9374 36.5535 15.7509 36.1004L29.6176 28.3614Z" fill="url(#paint2_linear_264_1342)"/>
</g>
<path d="M29.6176 20.4853L15.7509 12.7472C14.9374 12.2931 14.215 12.35 13.7783 12.805L25.6089 24.4243L29.6176 20.4853Z" fill="url(#paint3_linear_264_1342)"/>
</g>
<path d="M65.0858 21.1314C62.9771 21.1314 61.2584 22.6997 61.2584 24.8598C61.2584 27.0068 62.9771 28.5883 65.0858 28.5883C67.1953 28.5883 68.914 27.0068 68.914 24.8598C68.9131 22.6997 67.1944 21.1314 65.0858 21.1314ZM65.0858 27.1207C63.9301 27.1207 62.9341 26.1889 62.9341 24.8607C62.9341 23.5185 63.931 22.6007 65.0858 22.6007C66.2414 22.6007 67.2375 23.5185 67.2375 24.8607C67.2375 26.188 66.2414 27.1207 65.0858 27.1207ZM56.7354 21.1314C54.6267 21.1314 52.9081 22.6997 52.9081 24.8598C52.9081 27.0068 54.6267 28.5883 56.7354 28.5883C58.8449 28.5883 60.5636 27.0068 60.5636 24.8598C60.5636 22.6997 58.8449 21.1314 56.7354 21.1314ZM56.7354 27.1207C55.5798 27.1207 54.5837 26.1889 54.5837 24.8607C54.5837 23.5185 55.5807 22.6007 56.7354 22.6007C57.891 22.6007 58.8871 23.5185 58.8871 24.8607C58.888 26.188 57.891 27.1207 56.7354 27.1207ZM46.8035 22.2763V23.8578H50.6748C50.5591 24.7476 50.2561 25.3972 49.7935 25.8487C49.2305 26.3993 48.3492 27.0068 46.8035 27.0068C44.4205 27.0068 42.5575 25.1281 42.5575 22.7979C42.5575 20.4678 44.4205 18.5891 46.8035 18.5891C48.0892 18.5891 49.0278 19.0835 49.7209 19.7191L50.8622 18.6031C49.8939 17.6993 48.6092 17.0076 46.8035 17.0076C43.5392 17.0076 40.7949 19.606 40.7949 22.7979C40.7949 25.9899 43.5392 28.5883 46.8035 28.5883C48.5652 28.5883 49.8948 28.0228 50.9339 26.9638C52.0026 25.9188 52.3352 24.4496 52.3352 23.2634C52.3352 22.897 52.3065 22.5577 52.2482 22.2754L46.8035 22.2763ZM87.4239 23.5045C87.1066 22.6717 86.1383 21.1314 84.1596 21.1314C82.1953 21.1314 80.5627 22.6428 80.5627 24.8598C80.5627 26.9498 82.181 28.5883 84.347 28.5883C86.0944 28.5883 87.1057 27.5433 87.5253 26.9358L86.2253 26.088C85.7922 26.7096 85.1996 27.119 84.347 27.119C83.4953 27.119 82.8883 26.7376 82.4984 25.989L87.597 23.9271L87.4239 23.5045ZM82.224 24.7476C82.181 23.3064 83.3653 22.5726 84.2179 22.5726C84.8823 22.5726 85.4453 22.8979 85.6336 23.3634L82.224 24.7476ZM78.0793 28.363H79.754V17.4038H78.0793V28.363ZM75.3341 21.9651H75.2767C74.9011 21.5268 74.1785 21.1314 73.2694 21.1314C71.3624 21.1314 69.6151 22.7699 69.6151 24.8747C69.6151 26.9647 71.3624 28.5892 73.2694 28.5892C74.1794 28.5892 74.9011 28.1938 75.2767 27.7423H75.3341V28.2788C75.3341 29.7051 74.5541 30.4678 73.2981 30.4678C72.2724 30.4678 71.6368 29.7481 71.3768 29.1406L69.9181 29.7341C70.3368 30.7221 71.4485 31.9371 73.2981 31.9371C75.2624 31.9371 76.9237 30.8071 76.9237 28.0526V21.3584H75.335L75.3341 21.9651ZM73.4137 27.1207C72.2581 27.1207 71.2907 26.174 71.2907 24.8747C71.2907 23.5606 72.2581 22.6007 73.4137 22.6007C74.5541 22.6007 75.4498 23.5606 75.4498 24.8747C75.4498 26.174 74.5541 27.1207 73.4137 27.1207ZM95.2722 17.4038H91.2638V28.363H92.9359V24.2111H95.2714C97.1254 24.2111 98.949 22.8987 98.949 20.8079C98.949 18.7171 97.1263 17.4038 95.2722 17.4038ZM95.3153 22.6857H92.9359V18.9292H95.3153C96.566 18.9292 97.276 19.9418 97.276 20.8079C97.276 21.6565 96.566 22.6857 95.3153 22.6857ZM105.654 21.1121C104.443 21.1121 103.189 21.6337 102.67 22.79L104.154 23.3958C104.472 22.79 105.063 22.5919 105.683 22.5919C106.548 22.5919 107.428 23.0995 107.442 24.0016V24.1147C107.139 23.9455 106.49 23.6921 105.697 23.6921C104.097 23.6921 102.467 24.5521 102.467 26.159C102.467 27.6257 103.78 28.5699 105.25 28.5699C106.374 28.5699 106.995 28.0763 107.384 27.4977H107.441V28.3437H109.057V24.1418C109.057 22.1974 107.571 21.1121 105.654 21.1121ZM105.452 27.1181C104.905 27.1181 104.14 26.8499 104.14 26.1871C104.14 25.3411 105.092 25.0168 105.914 25.0168C106.648 25.0168 106.995 25.1719 107.442 25.3832C107.312 26.3993 106.418 27.1181 105.452 27.1181ZM114.94 21.3514L113.022 26.1029H112.965L110.974 21.3514H109.172L112.157 27.9921L110.455 31.6864H112.2L116.8 21.3514H114.94ZM99.8724 28.363H101.544V17.4038H99.8724V28.363Z" fill="#090909"/>
<defs>
<filter id="filter0_ii_264_1342" x="13.3389" y="12.4338" width="21.917" height="23.9795" filterUnits="userSpaceOnUse" color-interpolation-filters="sRGB">
<feFlood flood-opacity="0" result="BackgroundImageFix"/>
<feBlend mode="normal" in="SourceGraphic" in2="BackgroundImageFix" result="shape"/>
<feColorMatrix in="SourceAlpha" type="matrix" values="0 0 0 0 0 0 0 0 0 0 0 0 0 0 0 0 0 0 127 0" result="hardAlpha"/>
<feOffset dy="-0.139846"/>
<feComposite in2="hardAlpha" operator="arithmetic" k2="-1" k3="1"/>
<feColorMatrix type="matrix" values="0 0 0 0 0 0 0 0 0 0 0 0 0 0 0 0 0 0 0.12 0"/>
<feBlend mode="normal" in2="shape" result="effect1_innerShadow_264_1342"/>
<feColorMatrix in="SourceAlpha" type="matrix" values="0 0 0 0 0 0 0 0 0 0 0 0 0 0 0 0 0 0 127 0" result="hardAlpha"/>
<feOffset dy="0.139846"/>
<feComposite in2="hardAlpha" operator="arithmetic" k2="-1" k3="1"/>
<feColorMatrix type="matrix" values="0 0 0 0 1 0 0 0 0 1 0 0 0 0 1 0 0 0 0.25 0"/>
<feBlend mode="normal" in2="effect1_innerShadow_264_1342" result="effect2_innerShadow_264_1342"/>
</filter>
<filter id="filter1_i_264_1342" x="13.7783" y="24.4233" width="15.8389" height="11.99" filterUnits="userSpaceOnUse" color-interpolation-filters="sRGB">
<feFlood flood-opacity="0" result="BackgroundImageFix"/>
<feBlend mode="normal" in="SourceGraphic" in2="BackgroundImageFix" result="shape"/>
<feColorMatrix in="SourceAlpha" type="matrix" values="0 0 0 0 0 0 0 0 0 0 0 0 0 0 0 0 0 0 127 0" result="hardAlpha"/>
<feOffset dy="-0.139846"/>
<feComposite in2="hardAlpha" operator="arithmetic" k2="-1" k3="1"/>
<feColorMatrix type="matrix" values="0 0 0 0 0 0 0 0 0 0 0 0 0 0 0 0 0 0 0.08 0"/>
<feBlend mode="normal" in2="shape" result="effect1_innerShadow_264_1342"/>
</filter>
<linearGradient id="paint0_linear_264_1342" x1="24.5665" y1="13.8959" x2="8.92308" y2="29.8237" gradientUnits="userSpaceOnUse">
<stop stop-color="#00A0FF"/>
<stop offset="0.0066" stop-color="#00A1FF"/>
<stop offset="0.2601" stop-color="#00BEFF"/>
<stop offset="0.5122" stop-color="#00D2FF"/>
<stop offset="0.7604" stop-color="#00DFFF"/>
<stop offset="1" stop-color="#00E3FF"/>
</linearGradient>
<linearGradient id="paint1_linear_264_1342" x1="35.987" y1="24.4233" x2="13.019" y2="24.4233" gradientUnits="userSpaceOnUse">
<stop stop-color="#FFE000"/>
<stop offset="0.4087" stop-color="#FFBD00"/>
<stop offset="0.7754" stop-color="#FFA500"/>
<stop offset="1" stop-color="#FF9C00"/>
</linearGradient>
<linearGradient id="paint2_linear_264_1342" x1="27.4401" y1="26.562" x2="6.2257" y2="48.162" gradientUnits="userSpaceOnUse">
<stop stop-color="#FF3A44"/>
<stop offset="1" stop-color="#C31162"/>
</linearGradient>
<linearGradient id="paint3_linear_264_1342" x1="10.799" y1="5.94116" x2="20.2718" y2="15.5862" gradientUnits="userSpaceOnUse">
<stop stop-color="#32A071"/>
<stop offset="0.0685" stop-color="#2DA771"/>
<stop offset="0.4762" stop-color="#15CF74"/>
<stop offset="0.8009" stop-color="#06E775"/>
<stop offset="1" stop-color="#00F076"/>
</linearGradient>
</defs>
</svg>
