<svg width="130" height="49" viewBox="0 0 130 49" fill="none" xmlns="http://www.w3.org/2000/svg">
<rect x="0.736141" y="0.736141" width="128.615" height="47.1429" rx="7.30011" fill="white" stroke="#090909" stroke-width="0.527719"/>
<path d="M30.3592 25.0142C30.3844 23.0447 31.438 21.1812 33.1094 20.1496C32.055 18.6379 30.2889 17.6794 28.4515 17.6217C26.4917 17.4152 24.5918 18.7989 23.5931 18.7989C22.5752 18.7989 21.0376 17.6422 19.3818 17.6764C17.2236 17.7464 15.2117 18.9782 14.1617 20.8724C11.9046 24.7954 13.5882 30.561 15.7503 33.7321C16.832 35.2849 18.0963 37.0194 19.7505 36.9579C21.3693 36.8905 21.9739 35.9216 23.9279 35.9216C25.8637 35.9216 26.431 36.9579 28.1188 36.9188C29.8558 36.8905 30.9502 35.3591 31.994 33.7916C32.7712 32.6852 33.3693 31.4623 33.7661 30.1684C31.7248 29.3016 30.3615 27.2393 30.3592 25.0142Z" fill="#090909"/>
<path d="M27.1712 15.5362C28.1183 14.3948 28.5848 12.9277 28.4719 11.4465C27.0249 11.5991 25.6883 12.2934 24.7284 13.391C23.7898 14.4634 23.3013 15.9046 23.3937 17.3292C24.8411 17.3442 26.2641 16.6687 27.1712 15.5362Z" fill="#090909"/>
<path d="M88.0974 18.7582V21.1448H86.6073V22.7099H88.0974V28.0278C88.0974 29.8437 88.9157 30.57 90.9743 30.57C91.336 30.57 91.6806 30.5268 91.982 30.4749V28.9271C91.7236 28.953 91.56 28.9703 91.2757 28.9703C90.3541 28.9703 89.9493 28.538 89.9493 27.5522V22.7099H91.982V21.1448H89.9493V18.7582H88.0974Z" fill="#090909"/>
<path d="M97.2262 30.6997C99.9653 30.6997 101.645 28.8579 101.645 25.8055C101.645 22.7704 99.9567 20.9199 97.2262 20.9199C94.4872 20.9199 92.7989 22.7704 92.7989 25.8055C92.7989 28.8579 94.4785 30.6997 97.2262 30.6997ZM97.2262 29.0481C95.6155 29.0481 94.7111 27.8635 94.7111 25.8055C94.7111 23.7648 95.6155 22.5715 97.2262 22.5715C98.8283 22.5715 99.7413 23.7648 99.7413 25.8055C99.7413 27.8548 98.8283 29.0481 97.2262 29.0481Z" fill="#090909"/>
<path d="M103.082 30.5181H104.934V24.9581C104.934 23.6351 105.924 22.7445 107.328 22.7445C107.656 22.7445 108.207 22.805 108.362 22.8569V21.0237C108.164 20.9718 107.811 20.9459 107.535 20.9459C106.312 20.9459 105.27 21.6203 105.003 22.5456H104.865V21.1015H103.082V30.5181Z" fill="#090909"/>
<path d="M112.96 22.5023C114.33 22.5023 115.225 23.4622 115.269 24.9408H110.531C110.635 23.4708 111.591 22.5023 112.96 22.5023ZM115.26 27.9759C114.915 28.7109 114.149 29.1173 113.029 29.1173C111.548 29.1173 110.591 28.071 110.531 26.4194V26.3157H117.155V25.6672C117.155 22.7099 115.579 20.9199 112.969 20.9199C110.324 20.9199 108.645 22.8309 108.645 25.8401C108.645 28.8493 110.29 30.6997 112.977 30.6997C115.122 30.6997 116.621 29.6621 117.043 27.9759H115.26Z" fill="#090909"/>
<path d="M75.953 27.0407C76.0959 29.353 78.0153 30.8318 80.8721 30.8318C83.9253 30.8318 85.8358 29.2813 85.8358 26.8077C85.8358 24.8629 84.7467 23.7874 82.1041 23.169L80.6846 22.8194C79.0062 22.4251 78.3277 21.8963 78.3277 20.9732C78.3277 19.8081 79.3812 19.0463 80.9614 19.0463C82.4612 19.0463 83.4968 19.7902 83.6843 20.9822H85.6305C85.5144 18.8043 83.6039 17.2717 80.9882 17.2717C78.176 17.2717 76.3012 18.8043 76.3012 21.1076C76.3012 23.0077 77.3636 24.1369 79.6937 24.6836L81.3542 25.0869C83.0593 25.4902 83.8093 26.0818 83.8093 27.0676C83.8093 28.2148 82.6308 29.0483 81.0239 29.0483C79.3008 29.0483 78.1046 28.2686 77.9349 27.0407H75.953Z" fill="#090909"/>
<path d="M56.7694 20.9459C55.4946 20.9459 54.3921 21.5858 53.8236 22.658H53.6858V21.1015H51.9029V33.6484H53.7547V29.0914H53.9012C54.3921 30.0858 55.4516 30.6738 56.7867 30.6738C59.1553 30.6738 60.6627 28.7974 60.6627 25.8055C60.6627 22.8136 59.1553 20.9459 56.7694 20.9459ZM56.244 29.0049C54.6936 29.0049 53.7203 27.777 53.7203 25.8142C53.7203 23.8426 54.6936 22.6148 56.2526 22.6148C57.8203 22.6148 58.7591 23.8167 58.7591 25.8055C58.7591 27.803 57.8203 29.0049 56.244 29.0049Z" fill="#090909"/>
<path d="M67.1427 20.9459C65.8679 20.9459 64.7654 21.5858 64.1969 22.658H64.0591V21.1015H62.2761V33.6484H64.128V29.0914H64.2745C64.7654 30.0858 65.8249 30.6738 67.1599 30.6738C69.5286 30.6738 71.036 28.7974 71.036 25.8055C71.036 22.8136 69.5286 20.9459 67.1427 20.9459ZM66.6173 29.0049C65.0669 29.0049 64.0936 27.777 64.0936 25.8142C64.0936 23.8426 65.0669 22.6148 66.6259 22.6148C68.1936 22.6148 69.1324 23.8167 69.1324 25.8055C69.1324 27.803 68.1936 29.0049 66.6173 29.0049Z" fill="#090909"/>
<path d="M48.5803 30.5181H50.705L46.0538 17.5854H43.9022L39.251 30.5181H41.3043L42.4917 27.0855H47.4018L48.5803 30.5181ZM44.8753 19.9336H45.0271L46.893 25.4006H43.0005L44.8753 19.9336Z" fill="#090909"/>
</svg>
