<svg width="20" height="21" viewBox="0 0 20 21" fill="none" xmlns="http://www.w3.org/2000/svg">
<g clip-path="url(#clip0_1_928)">
<path d="M15.8064 12.8893C15.397 12.4629 14.9031 12.235 14.3797 12.235C13.8605 12.235 13.3624 12.4587 12.936 12.8851L11.6022 14.2147C11.4924 14.1556 11.3827 14.1007 11.2771 14.0459C11.1252 13.9699 10.9816 13.8981 10.8592 13.8222C9.60978 13.0286 8.47429 11.9944 7.38524 10.6563C6.8576 9.98936 6.50302 9.42795 6.24553 8.8581C6.59166 8.54151 6.91247 8.21226 7.22484 7.89568C7.34303 7.77749 7.46122 7.65507 7.57941 7.53688C8.46585 6.65044 8.46585 5.50229 7.57941 4.61585L6.42704 3.46348C6.29619 3.33263 6.16111 3.19755 6.03447 3.06248C5.78121 2.80077 5.51528 2.53061 5.2409 2.27734C4.83145 1.87211 4.3418 1.65684 3.82682 1.65684C3.31184 1.65684 2.81375 1.87211 2.39163 2.27734L2.38319 2.28579L0.948005 3.73364C0.407699 4.27394 0.099556 4.93244 0.0320178 5.69647C-0.0692895 6.92904 0.293728 8.07719 0.572323 8.82855C1.25615 10.6732 2.27766 12.3827 3.80149 14.2147C5.65035 16.4224 7.87489 18.1657 10.416 19.3941C11.3869 19.8542 12.6828 20.3987 14.1306 20.4916C14.2193 20.4958 14.3121 20.5 14.3965 20.5C15.3716 20.5 16.1905 20.1496 16.8321 19.4532C16.8364 19.4447 16.8448 19.4405 16.849 19.432C17.0685 19.1661 17.3218 18.9255 17.5877 18.668C17.7692 18.495 17.955 18.3134 18.1365 18.1235C18.5544 17.6887 18.7739 17.1822 18.7739 16.663C18.7739 16.1396 18.5501 15.6372 18.1238 15.2151L15.8064 12.8893ZM17.3176 17.3341C17.3134 17.3341 17.3134 17.3384 17.3176 17.3341C17.153 17.5114 16.9841 17.6718 16.8026 17.8491C16.5282 18.1108 16.2496 18.3852 15.9879 18.6933C15.5616 19.1492 15.0593 19.3645 14.4008 19.3645C14.3375 19.3645 14.2699 19.3645 14.2066 19.3603C12.9529 19.2801 11.7879 18.7904 10.9141 18.3725C8.52495 17.216 6.42704 15.5739 4.68371 13.4929C3.2443 11.758 2.28188 10.154 1.64449 8.43176C1.25193 7.3807 1.10841 6.5618 1.17172 5.78933C1.21394 5.29546 1.40389 4.88601 1.75424 4.53565L3.19365 3.09624C3.40049 2.90207 3.61998 2.79654 3.83526 2.79654C4.10119 2.79654 4.31647 2.95695 4.45155 3.09202L4.46421 3.10469C4.7217 3.34529 4.96653 3.59434 5.22402 3.86027C5.35487 3.99535 5.48995 4.13042 5.62502 4.26972L6.7774 5.42209C7.22484 5.86953 7.22484 6.2832 6.7774 6.73064C6.65498 6.85306 6.53679 6.97547 6.41438 7.09366C6.0598 7.45668 5.72211 7.79437 5.35487 8.12362C5.34643 8.13206 5.33799 8.13628 5.33377 8.14473C4.97075 8.50774 5.03829 8.86232 5.11427 9.10292L5.12693 9.14091C5.42663 9.86695 5.84874 10.5508 6.49036 11.3655L6.49458 11.3697C7.65961 12.8049 8.88796 13.9235 10.2429 14.7804C10.416 14.8901 10.5933 14.9787 10.7621 15.0632C10.9141 15.1391 11.0576 15.2109 11.18 15.2869C11.1969 15.2953 11.2138 15.308 11.2307 15.3164C11.3742 15.3882 11.5093 15.422 11.6486 15.422C11.9989 15.422 12.2184 15.2025 12.2902 15.1307L13.7338 13.6871C13.8773 13.5436 14.1053 13.3705 14.3712 13.3705C14.6329 13.3705 14.8482 13.5351 14.9791 13.6786L14.9875 13.6871L17.3134 16.0129C17.7481 16.4435 17.7481 16.8867 17.3176 17.3341ZM10.8086 5.25747C11.9145 5.4432 12.9191 5.96662 13.7212 6.76863C14.5232 7.57065 15.0424 8.57528 15.2323 9.68122C15.2788 9.95981 15.5194 10.154 15.7937 10.154C15.8275 10.154 15.8571 10.1498 15.8908 10.1455C16.2032 10.0949 16.41 9.79941 16.3594 9.48705C16.1314 8.14895 15.4983 6.92904 14.5316 5.9624C13.565 4.99576 12.3451 4.36259 11.007 4.13464C10.6946 4.08399 10.4034 4.29083 10.3485 4.59897C10.2936 4.90711 10.4962 5.20681 10.8086 5.25747ZM19.9769 9.32242C19.6012 7.11899 18.5628 5.11395 16.9672 3.51836C15.3716 1.92277 13.3666 0.884369 11.1632 0.508688C10.855 0.453813 10.5638 0.66487 10.5089 0.973013C10.4582 1.28538 10.6651 1.57664 10.9774 1.63151C12.9445 1.96498 14.7385 2.89785 16.1652 4.32037C17.5919 5.74712 18.5206 7.5411 18.8541 9.50815C18.9005 9.78675 19.1411 9.98092 19.4155 9.98092C19.4492 9.98092 19.4788 9.9767 19.5126 9.97248C19.8207 9.92605 20.0318 9.63057 19.9769 9.32242Z" fill="black"/>
</g>
<defs>
<clipPath id="clip0_1_928">
<rect width="20" height="20" fill="black" transform="translate(0 0.5)"/>
</clipPath>
</defs>
</svg>
