<svg width="20" height="21" viewBox="0 0 20 21" fill="none" xmlns="http://www.w3.org/2000/svg">
<g clip-path="url(#clip0_1_922)">
<path d="M13.3389 13.7143C15.4671 10.3747 15.1996 10.7913 15.2609 10.7043C16.0358 9.61137 16.4453 8.32508 16.4453 6.98438C16.4453 3.42891 13.5601 0.5 10 0.5C6.45148 0.5 3.55469 3.42313 3.55469 6.98438C3.55469 8.32422 3.97281 9.64418 4.77305 10.7518L6.66102 13.7143C4.64246 14.0245 1.21094 14.9489 1.21094 16.9844C1.21094 17.7264 1.69523 18.7838 4.00242 19.6078C5.61344 20.1831 7.7434 20.5 10 20.5C14.2197 20.5 18.7891 19.3097 18.7891 16.9844C18.7891 14.9486 15.3616 14.0251 13.3389 13.7143ZM5.75191 10.1072C5.74547 10.0972 5.73874 10.0873 5.73172 10.0776C5.06582 9.16152 4.72656 8.07582 4.72656 6.98438C4.72656 4.05398 7.08617 1.67188 10 1.67188C12.9078 1.67188 15.2734 4.05504 15.2734 6.98438C15.2734 8.07758 14.9406 9.12645 14.3107 10.0184C14.2543 10.0929 14.5487 9.63535 10 16.773L5.75191 10.1072ZM10 19.3281C5.39086 19.3281 2.38281 17.9733 2.38281 16.9844C2.38281 16.3197 3.92844 15.2268 7.35344 14.8007L9.50586 18.1782C9.55879 18.2613 9.63181 18.3297 9.71817 18.3771C9.80454 18.4244 9.90145 18.4493 9.99996 18.4493C10.0985 18.4493 10.1954 18.4244 10.2817 18.3771C10.3681 18.3297 10.4411 18.2613 10.4941 18.1782L12.6464 14.8007C16.0715 15.2268 17.6172 16.3197 17.6172 16.9844C17.6172 17.9649 14.6362 19.3281 10 19.3281Z" fill="black"/>
<path d="M10 4.05469C8.38457 4.05469 7.07031 5.36895 7.07031 6.98438C7.07031 8.5998 8.38457 9.91406 10 9.91406C11.6154 9.91406 12.9297 8.5998 12.9297 6.98438C12.9297 5.36895 11.6154 4.05469 10 4.05469ZM10 8.74219C9.03074 8.74219 8.24219 7.95363 8.24219 6.98438C8.24219 6.01512 9.03074 5.22656 10 5.22656C10.9693 5.22656 11.7578 6.01512 11.7578 6.98438C11.7578 7.95363 10.9693 8.74219 10 8.74219Z" fill="black"/>
</g>
<defs>
<clipPath id="clip0_1_922">
<rect width="20" height="20" fill="black" transform="translate(0 0.5)"/>
</clipPath>
</defs>
</svg>
