<svg width="113" height="32" viewBox="0 0 503 143" fill="none" xmlns="http://www.w3.org/2000/svg">
<g clip-path="url(#clip0_7852_133549)">
<path d="M201.086 78.4553C200.588 78.8811 199.912 79.2359 199.058 79.5553C198.204 79.8746 197.244 80.0165 196.141 80.0165C194.86 80.0165 193.757 79.8036 192.796 79.4133C191.836 79.023 191.195 78.3843 190.84 77.5327C188.029 71.0746 185.61 65.3617 183.582 60.3585C181.554 55.3553 179.917 51.2036 178.672 47.8682H178.21C178.032 52.1972 177.854 56.1714 177.711 59.7907C177.569 63.4101 177.391 66.9585 177.213 70.4359C177.035 73.9133 176.822 77.4262 176.609 81.0101C176.395 84.594 176.182 88.4617 175.933 92.6133C175.434 92.7907 174.83 92.9682 174.047 93.1101C173.3 93.252 172.482 93.323 171.628 93.323C168.319 93.323 166.682 91.9746 166.682 89.3133C166.682 88.5327 166.718 87.1133 166.825 85.1262C166.931 83.1036 167.038 80.7262 167.18 77.9585C167.323 75.1907 167.501 72.1391 167.714 68.8036C167.928 65.4682 168.141 62.0617 168.39 58.6198C168.639 55.1778 168.888 51.8069 169.137 48.5069C169.386 45.2069 169.635 42.1198 169.884 39.352C170.382 38.8553 171.165 38.3585 172.304 37.7907C173.442 37.2585 174.83 36.9746 176.466 36.9746C178.423 36.9746 179.988 37.3294 181.127 38.0391C182.301 38.7488 183.19 39.7778 183.866 41.1972C184.827 43.3262 185.859 45.6327 186.891 48.0811C187.922 50.5294 188.954 53.0488 189.986 55.5682C191.018 58.0875 192.014 60.6069 193.01 63.0907C193.971 65.5746 194.931 67.9165 195.856 70.1165H196.319C197.493 67.0649 198.667 64.0488 199.841 61.0682C201.015 58.0875 202.189 55.2133 203.328 52.4811C204.466 49.7488 205.533 47.1585 206.53 44.7101C207.526 42.2617 208.451 40.0972 209.305 38.1456C209.981 37.8617 210.799 37.5778 211.76 37.3294C212.72 37.0811 213.752 36.9746 214.784 36.9746C216.812 36.9746 218.306 37.294 219.302 37.8972C220.298 38.5004 220.974 39.3875 221.259 40.5585C221.508 41.6585 221.792 43.4682 222.077 45.9875C222.397 48.5069 222.682 51.4165 223.002 54.7165C223.322 58.0165 223.607 61.494 223.927 65.1843C224.247 68.8746 224.496 72.423 224.745 75.8649C224.994 79.3069 225.208 82.4649 225.386 85.3746C225.564 88.2843 225.706 90.5198 225.742 92.1875C225.066 92.6133 224.354 92.9327 223.607 93.1456C222.86 93.3585 221.935 93.4649 220.903 93.4649C219.622 93.4649 218.519 93.1811 217.559 92.6488C216.598 92.1165 216.064 91.052 215.958 89.5617C215.709 85.4101 215.495 81.3294 215.282 77.3198C215.068 73.3101 214.855 69.5133 214.677 65.894C214.499 62.2746 214.321 58.9746 214.179 55.9585C214.036 52.9069 213.894 50.3165 213.752 48.1875H213.396C212.222 51.2746 210.657 55.2488 208.664 60.0391C206.672 64.8294 204.146 71.0391 201.015 78.5617L201.086 78.4553Z" fill="#3975E9"/>
<path d="M245.274 76.1491C246.128 79.6265 247.8 82.1813 250.255 83.8491C252.71 85.5168 255.876 86.3684 259.718 86.3684C262.28 86.3684 264.628 85.9781 266.763 85.162C268.898 84.3813 270.605 83.5297 271.886 82.6072C273.594 83.5652 274.448 84.9491 274.448 86.7233C274.448 87.7523 274.056 88.7104 273.274 89.5975C272.491 90.4846 271.388 91.2297 270.036 91.8684C268.649 92.5071 267.048 93.0039 265.197 93.3588C263.347 93.7136 261.355 93.891 259.22 93.891C255.698 93.891 252.461 93.3942 249.579 92.4362C246.661 91.4781 244.207 90.0233 242.107 88.0717C240.044 86.1201 238.443 83.7072 237.304 80.8684C236.166 77.9942 235.597 74.6942 235.597 70.933C235.597 67.1717 236.13 64.0846 237.233 61.3168C238.336 58.5491 239.83 56.2426 241.716 54.3975C243.602 52.5523 245.843 51.133 248.405 50.1394C250.966 49.1459 253.706 48.6846 256.659 48.6846C259.612 48.6846 262.245 49.1459 264.664 50.1039C267.083 51.062 269.147 52.3749 270.89 54.0426C272.633 55.7104 273.985 57.6975 274.91 60.0039C275.871 62.3104 276.333 64.8297 276.333 67.562C276.333 69.0878 275.978 70.1878 275.23 70.8975C274.483 71.6071 273.416 72.0684 272.028 72.3168L245.309 76.1491H245.274ZM256.623 56.0652C253.279 56.0652 250.468 57.2007 248.262 59.4362C246.021 61.6717 244.847 64.9007 244.74 69.1233L267.261 65.9297C267.012 63.1975 266.016 60.8555 264.237 58.9394C262.458 57.0233 259.932 56.0652 256.659 56.0652H256.623Z" fill="#3975E9"/>
<path d="M312.48 58.4426C310.808 57.0588 308.531 56.3491 305.65 56.3491C303.515 56.3491 301.594 56.633 299.921 57.1652C298.249 57.6975 296.791 58.3362 295.581 58.9749V92.4717C295.154 92.6491 294.549 92.8265 293.802 92.9684C293.055 93.1104 292.201 93.2168 291.276 93.2168C289.497 93.2168 288.181 92.862 287.327 92.2233C286.473 91.5491 286.046 90.4136 286.046 88.8523V58.7265C286.046 57.3426 286.331 56.2072 286.864 55.3555C287.398 54.5039 288.323 53.6523 289.604 52.8007C291.312 51.7717 293.553 50.8136 296.293 49.962C299.032 49.1104 302.163 48.6846 305.614 48.6846C311.52 48.6846 316.181 49.9975 319.525 52.6588C322.869 55.3201 324.541 59.2942 324.541 64.6523V92.4717C324.114 92.6491 323.51 92.8265 322.727 92.9684C321.944 93.1104 321.09 93.2168 320.165 93.2168C318.386 93.2168 317.07 92.862 316.216 92.2233C315.362 91.5491 314.935 90.4136 314.935 88.8523V65.0426C314.935 62.062 314.081 59.862 312.409 58.4781L312.48 58.4426Z" fill="#3975E9"/>
<path d="M337.243 50.0677C337.67 49.9258 338.274 49.8194 339.057 49.6419C339.84 49.4645 340.694 49.429 341.619 49.429C343.398 49.429 344.678 49.7484 345.497 50.4226C346.315 51.0968 346.742 52.2323 346.742 53.9V76.4323C346.742 79.9452 347.667 82.4645 349.517 83.9548C351.367 85.4452 353.964 86.1903 357.237 86.1903C359.372 86.1903 361.187 85.9774 362.645 85.5516C364.104 85.1258 365.278 84.6645 366.132 84.1677V50.0323C366.63 49.8903 367.235 49.7839 368.018 49.6065C368.765 49.4645 369.619 49.3936 370.544 49.3936C372.322 49.3936 373.639 49.7129 374.493 50.3871C375.347 51.0613 375.774 52.1968 375.774 53.8645V84.629C375.774 85.9774 375.56 87.0774 375.133 87.929C374.706 88.7807 373.852 89.5968 372.571 90.3774C370.97 91.3 368.907 92.1161 366.31 92.8258C363.713 93.571 360.688 93.9258 357.202 93.9258C350.905 93.9258 346.03 92.5419 342.508 89.7742C338.986 87.0065 337.243 82.6065 337.243 76.5742V50.0323V50.0677Z" fill="#3975E9"/>
<path d="M447.463 64.9356C447.463 71.926 446.04 77.6744 443.158 82.1808C440.276 86.6873 436.469 89.9163 431.738 91.8679C433.694 92.8969 435.473 93.8195 437.074 94.6002C438.675 95.3808 440.241 96.0905 441.699 96.6582C443.158 97.226 444.581 97.7937 445.898 98.2905C447.214 98.7873 448.601 99.3195 450.025 99.7808C450.096 100.207 450.131 100.561 450.131 100.845V101.626C450.131 103.4 449.633 104.749 448.673 105.671C447.712 106.629 446.324 107.09 444.546 107.09C442.34 107.09 439.707 106.274 436.576 104.642C433.481 103.01 430.03 100.774 426.33 97.9711L420.851 93.9614H420.317C416.403 93.9614 412.81 93.3227 409.466 92.0808C406.121 90.8389 403.275 88.9937 400.856 86.5453C398.437 84.0969 396.551 81.0808 395.163 77.4614C393.776 73.8421 393.1 69.655 393.1 64.9002C393.1 60.1453 393.812 55.9582 395.199 52.3389C396.587 48.7195 398.508 45.7034 400.963 43.255C403.418 40.8066 406.299 38.9969 409.608 37.7195C412.917 36.4776 416.475 35.8389 420.281 35.8389C424.088 35.8389 427.682 36.4776 430.99 37.7195C434.299 38.9614 437.145 40.8066 439.6 43.255C442.055 45.7034 443.976 48.7195 445.364 52.3389C446.751 55.9582 447.463 60.1453 447.463 64.9002V64.9356ZM437.501 64.9356C437.501 58.1227 435.936 52.9421 432.84 49.3582C429.745 45.7744 425.547 44.0356 420.317 44.0356C415.087 44.0356 411.067 45.8098 407.936 49.3582C404.805 52.9066 403.24 58.1227 403.24 64.9356C403.24 71.7485 404.805 76.9292 407.9 80.5131C410.996 84.0615 415.158 85.8356 420.353 85.8356C425.547 85.8356 429.781 84.0615 432.876 80.5131C435.971 76.9647 437.537 71.7485 437.537 64.9356H437.501Z" fill="#DF00A1"/>
<path d="M469.521 92.5069C469.023 92.6843 468.383 92.8618 467.6 93.0037C466.817 93.1456 465.928 93.2521 464.932 93.2521C463.046 93.2521 461.694 92.8972 460.876 92.1876C460.057 91.4779 459.631 90.3069 459.631 88.6747V41.5876C459.631 40.5585 459.915 39.7424 460.484 39.1747C461.054 38.6069 461.872 38.1456 462.904 37.8618C464.789 37.1876 467.066 36.7263 469.663 36.4779C472.261 36.2295 474.893 36.123 477.526 36.123C485.46 36.123 491.366 37.7198 495.244 40.9134C499.122 44.1069 501.043 48.6134 501.043 54.3618C501.043 58.3714 499.976 61.8134 497.877 64.6166C495.778 67.4553 492.754 69.5489 488.876 70.9682C490.334 72.7779 491.757 74.5876 493.18 76.3972C494.568 78.2069 495.92 79.9101 497.165 81.5069C498.41 83.1392 499.549 84.594 500.545 85.9069C501.541 87.2198 502.36 88.2843 502.964 89.136C502.644 90.5198 502.004 91.5843 500.936 92.3295C499.905 93.0747 498.766 93.4295 497.557 93.4295C496.098 93.4295 494.924 93.0747 494.07 92.365C493.216 91.6553 492.362 90.6972 491.508 89.4908L479.696 72.5295H469.45V92.5069H469.521ZM478.309 64.6876C482.258 64.6876 485.424 63.8359 487.737 62.1327C490.05 60.4295 491.224 57.8392 491.224 54.3618C491.224 50.8843 490.05 48.4005 487.702 46.6972C485.353 44.994 481.902 44.1424 477.313 44.1424C475.925 44.1424 474.538 44.2134 473.15 44.3198C471.763 44.4263 470.553 44.6037 469.45 44.7811V64.6876H478.309Z" fill="#DF00A1"/>
<path d="M4.3405 32.6455C6.72422 32.6455 8.681 30.6939 8.681 28.3165V11.1068C8.681 9.72291 9.78392 8.62291 11.1715 8.62291H28.4267C30.8104 8.62291 32.7672 6.6713 32.7672 4.29388C32.7672 1.91646 30.8104 -0.0351562 28.4267 -0.0351562H11.1359C5.01648 0.000327621 0 5.00355 0 11.1068V28.3165C0 30.6939 1.95678 32.6455 4.3405 32.6455Z" fill="#3975E9"/>
<path d="M28.3911 134.378H11.1359C9.74833 134.378 8.64542 133.278 8.64542 131.894V114.684C8.64542 112.307 6.68863 110.355 4.30492 110.355C1.9212 110.355 -0.0355835 112.307 -0.0355835 114.684V131.894C-0.0355835 138.033 4.9809 143.001 11.1003 143.001H28.3556C30.7393 143.001 32.6961 141.049 32.6961 138.672C32.6961 136.294 30.7393 134.343 28.3556 134.343L28.3911 134.378Z" fill="#3975E9"/>
<path d="M132.243 0H114.988C112.604 0 110.647 1.95161 110.647 4.32903C110.647 6.70645 112.604 8.65806 114.988 8.65806H132.243C133.63 8.65806 134.733 9.75807 134.733 11.1419V28.3516C134.733 30.729 136.69 32.6806 139.074 32.6806C141.458 32.6806 143.414 30.729 143.414 28.3516V11.1065C143.414 4.96774 138.398 0 132.279 0H132.243Z" fill="#3975E9"/>
<path d="M139.074 110.391C136.69 110.391 134.733 112.342 134.733 114.72V131.929C134.733 133.313 133.63 134.413 132.243 134.413H114.988C112.604 134.413 110.647 136.365 110.647 138.742C110.647 141.12 112.604 143.071 114.988 143.071H132.243C138.398 143.071 143.379 138.068 143.379 131.965V114.755C143.379 112.378 141.422 110.426 139.038 110.426L139.074 110.391Z" fill="#3975E9"/>
<path d="M81.331 66.2129H117.407C119.791 66.2129 121.747 64.2613 121.747 61.8839V33.1065C121.747 26.7549 116.553 21.5742 110.185 21.5742H81.331C78.9473 21.5742 76.9905 23.5258 76.9905 25.9033V61.8839C76.9905 64.2613 78.9473 66.2129 81.331 66.2129ZM85.6715 30.2323H110.22C111.821 30.2323 113.102 31.5097 113.102 33.1065V57.5903H85.6715V30.2323Z" fill="#3975E9"/>
<path d="M62.0834 21.6097H33.2297C26.8613 21.6097 21.6669 26.7903 21.6669 33.142V61.9194C21.6669 64.2968 23.6237 66.2484 26.0074 66.2484H62.0834C64.4671 66.2484 66.4239 64.2968 66.4239 61.9194V25.9033C66.4239 23.5258 64.4671 21.5742 62.0834 21.5742V21.6097ZM57.7429 57.5903H30.3124V33.1065C30.3124 31.5097 31.5932 30.2323 33.1942 30.2323H57.7429V57.5903Z" fill="#3975E9"/>
<path d="M47.4609 39.1035H40.5588C39.8121 39.1035 39.2068 39.7072 39.2068 40.4519V47.3358C39.2068 48.0805 39.8121 48.6842 40.5588 48.6842H47.4609C48.2076 48.6842 48.8128 48.0805 48.8128 47.3358V40.4519C48.8128 39.7072 48.2076 39.1035 47.4609 39.1035Z" fill="#3975E9"/>
<path d="M102.82 39.1035H95.9179C95.1713 39.1035 94.566 39.7072 94.566 40.4519V47.3358C94.566 48.0805 95.1713 48.6842 95.9179 48.6842H102.82C103.567 48.6842 104.172 48.0805 104.172 47.3358V40.4519C104.172 39.7072 103.567 39.1035 102.82 39.1035Z" fill="#3975E9"/>
<path d="M47.4609 94.3164H40.5588C39.8121 94.3164 39.2068 94.9201 39.2068 95.6648V102.549C39.2068 103.293 39.8121 103.897 40.5588 103.897H47.4609C48.2076 103.897 48.8128 103.293 48.8128 102.549V95.6648C48.8128 94.9201 48.2076 94.3164 47.4609 94.3164Z" fill="#3975E9"/>
<path d="M94.9218 81.1161C94.9218 78.7387 96.8785 76.7871 99.2623 76.7871H117.407C119.791 76.7871 121.747 78.7387 121.747 81.1161V117.097C121.747 119.474 119.791 121.426 117.407 121.426C115.023 121.426 113.066 119.474 113.066 117.097V85.4097H99.2623C96.8785 85.4097 94.9218 83.4581 94.9218 81.0807V81.1161Z" fill="#DF00A1"/>
<path d="M76.9905 109.894V81.1161C76.9905 78.7387 78.9473 76.7871 81.331 76.7871C83.7147 76.7871 85.6715 78.7387 85.6715 81.1161V109.894C85.6715 111.49 86.9523 112.768 88.5533 112.768H99.369C101.753 112.768 103.709 114.719 103.709 117.097C103.709 119.474 101.753 121.426 99.369 121.426H88.5533C82.1849 121.426 76.9905 116.245 76.9905 109.894Z" fill="#DF00A1"/>
<path d="M102.82 94.3164H95.9179C95.1713 94.3164 94.566 94.9201 94.566 95.6648V102.549C94.566 103.293 95.1713 103.897 95.9179 103.897H102.82C103.567 103.897 104.172 103.293 104.172 102.549V95.6648C104.172 94.9201 103.567 94.3164 102.82 94.3164Z" fill="#DF00A1"/>
<path d="M62.0834 76.7871H25.9718C23.5881 76.7871 21.6313 78.7387 21.6313 81.1161V109.894C21.6313 116.245 26.8257 121.426 33.1942 121.426H62.0478C64.4315 121.426 66.3883 119.474 66.3883 117.097V81.1161C66.3883 78.7387 64.4315 76.7871 62.0478 76.7871H62.0834ZM57.7429 112.768H33.1942C31.5932 112.768 30.3124 111.49 30.3124 109.894V85.4097H57.7429V112.768Z" fill="#3975E9"/>
</g>
<defs>
<clipPath id="clip0_7852_133549">
<rect width="503" height="143" fill="white"/>
</clipPath>
</defs>
</svg>
